<svg xmlns="http://www.w3.org/2000/svg" height="800" width="1200" viewBox="-51.04365 -94.916 442.3783 569.496"><defs><linearGradient gradientUnits="userSpaceOnUse" gradientTransform="scale(1.2249 .8164)" y2="71.998" x2="31.519" y1="204.863" x1="164.384" id="a"><stop stop-color="#06549B" offset="0"/><stop stop-color="#2FA1D3" offset=".55"/><stop stop-color="#2FA1D3" offset=".9"/></linearGradient><linearGradient gradientUnits="userSpaceOnUse" gradientTransform="scale(1.41423 .7071)" y2="-12.722" x2="257.419" y1="297.901" x1="27.329" id="b"><stop stop-color="#1371B1" offset="0"/><stop stop-color="#2FA1D3" offset=".05"/><stop stop-color="#2FA1D3" offset=".45"/><stop stop-color="#06569C" offset=".6"/></linearGradient><linearGradient gradientUnits="userSpaceOnUse" gradientTransform="scale(1.22466 .81655)" y2="279.483" x2="31.522" y1="359.212" x1="164.404" id="c"><stop stop-color="#9D1A36" offset="0"/><stop stop-color="#9D1A36" offset=".4"/><stop stop-color="#E6192F" offset=".6"/></linearGradient><linearGradient gradientUnits="userSpaceOnUse" gradientTransform="scale(1.41413 .70715)" y2="165.474" x2="257.444" y1="476.139" x1="27.321" id="d"><stop stop-color="#A21C38" offset="0"/><stop stop-color="#E6192F" offset=".13"/><stop stop-color="#E6192F" offset=".45"/><stop stop-color="#A71C37" offset=".6"/></linearGradient></defs><path d="M49.11 64.756c-2.575 1.257-7.776 2.805-15.49 2.805C12.259 67.561 0 52.87 0 34.124 0 11.808 15.62 0 35.039 0c7.528 0 11.506 1.44 14.068 2.802l-2.373 13.345c-2.853-1.263-5.88-2.413-11.109-2.413-9.247 0-19.057 5.5-19.057 20.144 0 13.1 7.822 20.029 19.135 20.029 4.48 0 7.522-.88 11.032-2.49zm35.47-48.207c-5.754 0-11.323 2.61-14.158 6.8h-.174V.234l-14.475 5.01v60.307h14.475v-28.17c0-4.067 2.644-8.443 7.716-8.443 5.425 0 7.516 4.271 7.516 10.484v26.13h14.487V37.424c0-14.36-6.158-20.875-15.386-20.875zm37.223 29.978c.533 6.108 5.6 9.354 13.428 9.424 4.718.036 10.203-1.335 13.857-3.488l2.184 11.266c-5.5 2.762-11.782 3.832-18.178 3.832-17.23 0-26.465-10.363-26.465-26.239 0-15.357 9.93-25.267 24.812-25.267 15.336 0 22.21 11.292 22.21 25.44 0 1.491-.183 3.92-.348 5.032h-31.5m17.391-10.302c0-3.547-1.73-9.75-8.432-9.75-5.876 0-8.646 5.058-9.058 9.75zm31.449-18.155l8.689 33.587h.292l8.69-33.587h15.977l-15.993 47.481h-17.631l-15.994-47.48zm37.752 15.615c0-6.985-.22-11.542-.517-15.616h13.637l.413 8.826h.367c2.386-6.985 6.966-9.639 11.677-9.906 2.24-.13 3.451.028 4.838.296v13.883c-1.327-.26-3.96-.566-5.811-.395-5.57.512-8.942 4.564-9.888 9.229-.19.966-.288 2.04-.288 3.296V65.55H208.4V33.685zm81.285 8.123c0 15.562-9.376 25.752-24.57 25.752-15.196 0-24.579-10.19-24.579-25.752 0-15.564 9.383-25.754 24.58-25.754 15.193 0 24.569 10.19 24.569 25.754m-15.008 0c0-7.727-2.656-14.452-9.562-14.452-6.915 0-9.558 6.724-9.558 14.452 0 7.734 2.643 14.449 9.558 14.449 6.908 0 9.562-6.715 9.562-14.45zm21.445-8.6c0-5.925-.217-10.985-.523-15.138h13.637l.312 6.643h.292c1.889-3.089 6.886-8.164 14.684-8.164 9.543 0 15.773 6.516 15.773 20.493v28.51h-14.463V39.224c0-6.11-2.096-10.287-7.33-10.287-4.013 0-6.505 2.822-7.43 5.527-.342.991-.482 2.337-.482 3.696v27.391h-14.47z" fill="#0056a2"/><path fill="url(#a)" d="M201.354 167.252L38.608 221.484v-108.47z" transform="translate(-39.79 -39.808) scale(1.044)"/><path fill="url(#b)" d="M364.05 221.492V113.027l-162.696 54.225-162.705 54.24 162.705 54.232z" transform="translate(-39.79 -39.808) scale(1.044)"/><path fill="url(#c)" d="M201.339 293.298l-162.721 54.27-.014-108.505z" transform="translate(-39.79 -39.808) scale(1.044)"/><path fill="url(#d)" d="M38.636 347.548l162.703 54.246 162.719-54.263V239.063l-162.75 54.218z" transform="translate(-39.79 -39.808) scale(1.044)"/></svg>