<svg xmlns="http://www.w3.org/2000/svg" height="800" width="1200" viewBox="-10.14327 -4.240225 87.90834 25.44135"><path d="M33.8289 6.266c-3.162 0-4.9731 1.3575-4.9731 3.7243 0 2.3421 1.8111 3.6992 4.973 3.6992 3.1582 0 4.9654-1.357 4.9654-3.6992 0-2.3668-1.8072-3.7243-4.9653-3.7243m0 5.7045c-1.7293 0-2.6032-.6615-2.6032-1.9802 0-1.3328.8739-2.0002 2.6032-2.0002 1.725 0 2.6074.6674 2.6074 2.0002 0 1.3187-.8823 1.9802-2.6074 1.9802M48.067 6.4474h-8.6258v1.5832h2.9944v4.9153c0 .4685.7161.6378 1.3215.6378.604 0 1.3201-.1609 1.3201-.6378V8.0306h2.9898m15.9325 3.8421c-.732 0-1.2344-.1224-1.5095-.3496-.3563-.303-.3976-.7531-.4071-1.0946V6.9592c0-.4628-.6798-.6134-1.2591-.6134-.5884 0-1.2718.1506-1.2718.6057v3.3602c0 1.282.4117 2.1816 1.2326 2.674 1.0125.5874 2.8537.5663 4.6239.544h2.2133v-1.657M29.9515 4.301H19.4938v1.7456h3.606v5.3001c0 1.2524 1.0538 2.104 2.8413 2.2518V6.0466h4.0104m23.9416.4861c-.223-.1524-.4568-.187-.762-.1965-.3129.01-.5563.0441-.7726.1965-.6833.4918-3.986 3.8097-4.5684 6.7116l-.0663.2868h2.3368l.0427-.208c.098-.4097.248-.8556.453-1.3142h5.137c.2047.4586.36.9045.4456 1.3141l.0497.2081h2.3407l-.0624-.2868c-.5895-2.902-3.8893-6.2198-4.5737-6.7116m-2.5125 3.9832a12.9815 12.9815 0 011.7505-2.1212 13.6218 13.6218 0 011.7381 2.1212" fill="#ed1a3a"/><path d="M15.5187 9.4548c-.0106-.0367-.0247-.0713-.0385-.1055-1.2132 1.3833-4.1917 2.2797-6.8714 2.0807-1.5783-.1175-4.5014-.9335-5.9764-1.8373 1.559 1.4923 3.381 2.6268 5.4476 3.2382 2.4532.7295 5.0687.6798 6.5433-.0878 1.0827-.7285 1.3279-2.0313.8954-3.2883" fill="#f8981d"/><path d="M12.145.7479c4.8303 2.8504 1.9555 11.822-1.8884 14.7045-3.5764 2.6807-7.3826 1.4446-8.2073-1.0277.7214 1.071 2.1512 1.4626 3.4215 1.0347 3.5314-1.4139 5.3492-7.809 5.5845-10.029.157-1.9118-.092-3.1959-.756-4.0041C9.538.6233 8.3743.2328 6.6678.768 7.8412-.1944 10.3533-.3087 12.145.7479" fill="#034ea2"/><path d="M14.8477 12.6167l.0575-.0367.0095-.007c.0995-.0653.1975-.1376.2893-.2219.042-.0377.086-.0794.128-.1234 1.879-1.906 2.2776-7.207-2.354-9.718-1.6475-.8947-5.4805-2.146-9.301-.2152C2.4114 2.932 1.108 4.2577.405 6.059c.5185-.8551 1.4153-1.4351 3.182-1.6842 1.7625-.2226 4.1938.0515 6.5694.8908 1.5335.5644 2.7725 1.2626 3.743 2.0528.799.6847 1.3137 1.3377 1.5804 2.0306.0138.0349.0279.0688.0388.1058.4325 1.2566.1874 2.559-.895 3.289a2.9488 2.9488 0 00.1538-.0861l.0237-.0131.0466-.028" fill="#ed1a3a"/><path d="M1.0026 9.1087c.0889.1408.29.381.419.5324.9307-2.1827 6.016-3.6001 7.5156-3.5821-3.3697-1.0848-6.6727-.5673-7.9992.5834-.4826.5373-.6329 1.343.0646 2.4663" fill="#f8981d"/><path d="M10.9206 14.0578c-2.7087-.1506-6.6513-1.1938-9.4453-4.3568l-.0533-.0603c-.1298-.151-.3305-.3912-.4194-.532C.3048 7.9862.4554 7.1797.938 6.6432H.9366a2.402 2.402 0 00-.3154.3355c-.7165.9239-.8018 2.4239-.3147 4.0139 1.0647 3.453 5.7214 5.5305 9.5 4.96 2.4148-.364 3.9282-1.7226 4.5579-2.2775-1.3684.3895-2.3784.4434-3.4438.3828" fill="#4395d1"/></svg>